<?xml version="1.0" standalone="no"?>
<!DOCTYPE svg PUBLIC "-//W3C//DTD SVG 20010904//EN"
 "http://www.w3.org/TR/2001/REC-SVG-20010904/DTD/svg10.dtd">
<svg version="1.0" xmlns="http://www.w3.org/2000/svg"
 width="300.000000pt" height="178.000000pt" viewBox="0 0 300.000000 178.000000"
 preserveAspectRatio="xMidYMid meet">
<metadata>
Created by potrace 1.10, written by Peter Selinger 2001-2011
</metadata>
<g transform="translate(0.000000,178.000000) scale(0.100000,-0.100000)"
fill="#000000" stroke="none">
<path d="M2890 1300 c0 -16 7 -20 30 -20 23 0 30 4 30 20 0 16 -7 20 -30 20
-23 0 -30 -4 -30 -20z"/>
<path d="M1730 1286 c0 -21 5 -25 30 -24 25 1 30 5 30 25 0 19 -5 23 -30 23
-25 0 -30 -4 -30 -24z"/>
<path d="M2055 1290 c-132 -4 -241 -7 -242 -8 0 -1 -4 -65 -8 -142 l-8 -140
-87 0 c-96 0 -293 -32 -317 -51 -8 -7 -13 -23 -10 -36 3 -15 -2 -27 -12 -32
-21 -12 -312 -87 -368 -96 -24 -4 -45 -11 -49 -16 -3 -5 -10 -9 -15 -9 -9 0
-7 75 7 201 4 47 4 47 -43 78 -42 28 -49 37 -53 74 -4 37 -9 43 -35 48 -49 11
-235 10 -235 -1 0 -5 52 -11 122 -12 l123 -3 6 -39 c6 -37 30 -66 54 -66 6 0
19 -9 28 -21 16 -18 17 -34 11 -145 -5 -95 -4 -124 5 -124 7 0 0 -17 -16 -37
-16 -21 -40 -55 -53 -75 -23 -34 -38 -42 -168 -89 -143 -52 -143 -52 -224
-131 -44 -43 -83 -78 -87 -78 -4 0 -27 24 -51 53 -24 28 -51 61 -61 72 -10 11
-44 52 -75 90 -31 39 -65 78 -76 87 -17 15 -18 20 -5 45 7 15 31 77 52 136 34
98 45 116 117 201 43 52 85 97 94 100 8 3 50 9 93 12 74 6 112 17 101 27 -9 9
-201 -22 -219 -35 -10 -7 -51 -53 -92 -103 -65 -80 -78 -103 -116 -207 -23
-64 -47 -126 -53 -138 -9 -18 -4 -29 44 -83 30 -34 92 -107 138 -162 52 -62
92 -101 106 -103 17 -3 44 17 105 75 82 77 85 79 222 128 l140 50 47 69 c54
79 58 82 113 96 22 6 76 21 120 34 209 63 181 61 790 61 477 0 560 -2 560 -14
0 -8 6 -16 13 -18 6 -3 12 2 12 11 0 14 22 16 178 16 128 0 183 4 195 13 16
11 17 30 11 220 -7 200 -8 208 -28 212 -33 7 -386 11 -386 4 0 -9 148 -19 278
-19 l112 0 1 -87 c1 -49 2 -140 3 -203 l1 -115 -185 2 c-136 2 -185 6 -185 14
0 7 -6 14 -12 17 -7 2 -13 -4 -13 -15 0 -17 -25 -18 -548 -21 -447 -3 -545 -1
-534 9 6 7 12 26 12 41 0 20 6 29 23 33 77 17 167 29 272 34 l120 6 5 140 5
140 318 9 c174 5 317 12 317 17 0 5 -37 8 -82 7 -46 -1 -191 -5 -323 -8z"/>
<path d="M860 1185 c0 -22 4 -25 40 -25 36 0 40 3 40 25 0 23 -4 25 -40 25
-36 0 -40 -2 -40 -25z"/>
<path d="M270 1175 c0 -22 4 -25 40 -25 36 0 40 3 40 25 0 23 -4 25 -40 25
-36 0 -40 -2 -40 -25z"/>
<path d="M904 1094 c3 -9 6 -20 6 -25 0 -5 18 -9 40 -9 36 0 40 3 40 25 0 23
-4 25 -46 25 -38 0 -45 -3 -40 -16z"/>
<path d="M730 1065 c0 -23 4 -25 44 -25 41 0 44 2 42 25 -1 23 -5 25 -43 25
-39 0 -43 -2 -43 -25z"/>
<path d="M960 1008 c0 -19 6 -23 30 -24 25 -1 30 3 30 22 0 20 -5 24 -30 24
-24 0 -30 -4 -30 -22z"/>
<path d="M830 1000 c0 -16 7 -20 34 -20 29 0 33 3 29 20 -4 14 -14 20 -34 20
-22 0 -29 -5 -29 -20z"/>
<path d="M1318 985 c-5 -23 -2 -25 28 -25 30 0 34 3 34 25 0 21 -5 25 -29 25
-23 0 -30 -5 -33 -25z"/>
<path d="M1840 985 c0 -21 5 -25 30 -25 25 0 30 4 30 25 0 21 -5 25 -30 25
-25 0 -30 -4 -30 -25z"/>
<path d="M80 955 c0 -23 4 -25 44 -25 40 0 44 2 44 25 0 23 -4 25 -44 25 -40
0 -44 -2 -44 -25z"/>
<path d="M1420 901 c0 -12 9 -20 25 -23 29 -6 35 -2 35 24 0 13 -8 18 -30 18
-23 0 -30 -5 -30 -19z"/>
<path d="M2904 871 c-2 -2 -4 -13 -4 -23 0 -13 8 -18 30 -18 25 0 30 4 30 24
0 19 -5 24 -26 22 -14 0 -28 -3 -30 -5z"/>
<path d="M1340 800 c0 -17 7 -20 44 -20 39 0 44 2 39 20 -4 16 -14 20 -44 20
-32 0 -39 -3 -39 -20z"/>
<path d="M837 773 c-4 -3 -7 -15 -7 -25 0 -14 8 -18 36 -18 29 0 35 3 30 16
-3 9 -6 20 -6 25 0 10 -43 12 -53 2z"/>
<path d="M966 704 c-11 -29 -6 -34 39 -34 41 0 45 2 45 25 0 22 -4 25 -39 25
-26 0 -41 -5 -45 -16z"/>
<path d="M130 674 c0 -21 5 -24 40 -24 36 0 40 3 40 24 0 22 -4 25 -40 24 -35
0 -40 -3 -40 -24z"/>
<path d="M870 560 c0 -24 3 -25 40 -22 34 4 40 8 40 27 0 20 -5 22 -40 21 -36
-1 -40 -3 -40 -26z"/>
<path d="M580 454 c0 -21 5 -24 40 -24 36 0 40 3 40 24 0 22 -4 25 -40 24 -35
0 -40 -3 -40 -24z"/>
<path d="M350 284 c0 -21 5 -24 40 -24 35 0 40 3 40 23 0 19 -5 22 -40 23 -36
1 -40 -1 -40 -22z"/>
</g>
</svg>
